<mxfile host="app.diagrams.net" agent="Mozilla/5.0 (Windows NT 10.0; Win64; x64; rv:142.0) Gecko/20100101 Firefox/142.0" version="28.2.5">
  <diagram name="Сторінка-1" id="VAJMqHQ5mQFvVpTRve6U">
    <mxGraphModel dx="2898" dy="1194" grid="1" gridSize="10" guides="1" tooltips="1" connect="1" arrows="1" fold="1" page="1" pageScale="1" pageWidth="827" pageHeight="1169" math="0" shadow="0">
      <root>
        <mxCell id="0" />
        <mxCell id="1" parent="0" />
        <mxCell id="VcqMfghgUAIxzH13MLmw-5" style="edgeStyle=orthogonalEdgeStyle;rounded=0;orthogonalLoop=1;jettySize=auto;html=1;" edge="1" parent="1" source="VcqMfghgUAIxzH13MLmw-4">
          <mxGeometry relative="1" as="geometry">
            <mxPoint x="180" y="120" as="targetPoint" />
          </mxGeometry>
        </mxCell>
        <mxCell id="VcqMfghgUAIxzH13MLmw-4" value="" style="ellipse;fillColor=strokeColor;html=1;" vertex="1" parent="1">
          <mxGeometry x="155" y="30" width="50" height="50" as="geometry" />
        </mxCell>
        <mxCell id="VcqMfghgUAIxzH13MLmw-7" style="edgeStyle=orthogonalEdgeStyle;rounded=0;orthogonalLoop=1;jettySize=auto;html=1;" edge="1" parent="1" source="VcqMfghgUAIxzH13MLmw-6">
          <mxGeometry relative="1" as="geometry">
            <mxPoint x="180" y="200" as="targetPoint" />
          </mxGeometry>
        </mxCell>
        <mxCell id="VcqMfghgUAIxzH13MLmw-6" value="x" style="ellipse;whiteSpace=wrap;html=1;" vertex="1" parent="1">
          <mxGeometry x="135" y="120" width="90" height="50" as="geometry" />
        </mxCell>
        <mxCell id="VcqMfghgUAIxzH13MLmw-9" style="edgeStyle=orthogonalEdgeStyle;rounded=0;orthogonalLoop=1;jettySize=auto;html=1;" edge="1" parent="1" source="VcqMfghgUAIxzH13MLmw-8">
          <mxGeometry relative="1" as="geometry">
            <mxPoint x="180" y="280" as="targetPoint" />
          </mxGeometry>
        </mxCell>
        <mxCell id="VcqMfghgUAIxzH13MLmw-8" value="R" style="ellipse;whiteSpace=wrap;html=1;" vertex="1" parent="1">
          <mxGeometry x="135" y="200" width="90" height="50" as="geometry" />
        </mxCell>
        <mxCell id="VcqMfghgUAIxzH13MLmw-11" style="edgeStyle=orthogonalEdgeStyle;rounded=0;orthogonalLoop=1;jettySize=auto;html=1;entryX=0;entryY=0.5;entryDx=0;entryDy=0;" edge="1" parent="1" source="VcqMfghgUAIxzH13MLmw-10" target="VcqMfghgUAIxzH13MLmw-12">
          <mxGeometry relative="1" as="geometry">
            <mxPoint x="360" y="320" as="targetPoint" />
          </mxGeometry>
        </mxCell>
        <mxCell id="VcqMfghgUAIxzH13MLmw-14" style="edgeStyle=orthogonalEdgeStyle;rounded=0;orthogonalLoop=1;jettySize=auto;html=1;" edge="1" parent="1" source="VcqMfghgUAIxzH13MLmw-10">
          <mxGeometry relative="1" as="geometry">
            <mxPoint x="180" y="390" as="targetPoint" />
            <Array as="points">
              <mxPoint x="180" y="380" />
              <mxPoint x="180" y="380" />
            </Array>
          </mxGeometry>
        </mxCell>
        <mxCell id="VcqMfghgUAIxzH13MLmw-10" value="" style="rhombus;whiteSpace=wrap;html=1;" vertex="1" parent="1">
          <mxGeometry x="140" y="280" width="80" height="80" as="geometry" />
        </mxCell>
        <mxCell id="VcqMfghgUAIxzH13MLmw-12" value="y=вираз&lt;sub&gt;1&lt;/sub&gt;" style="ellipse;whiteSpace=wrap;html=1;" vertex="1" parent="1">
          <mxGeometry x="354" y="280" width="120" height="80" as="geometry" />
        </mxCell>
        <mxCell id="VcqMfghgUAIxzH13MLmw-13" value="" style="endArrow=none;html=1;rounded=0;exitX=1;exitY=0.5;exitDx=0;exitDy=0;" edge="1" parent="1" source="VcqMfghgUAIxzH13MLmw-12">
          <mxGeometry width="50" height="50" relative="1" as="geometry">
            <mxPoint x="390" y="300" as="sourcePoint" />
            <mxPoint x="600" y="320" as="targetPoint" />
          </mxGeometry>
        </mxCell>
        <mxCell id="VcqMfghgUAIxzH13MLmw-16" style="edgeStyle=orthogonalEdgeStyle;rounded=0;orthogonalLoop=1;jettySize=auto;html=1;entryX=0.5;entryY=0;entryDx=0;entryDy=0;" edge="1" parent="1" source="VcqMfghgUAIxzH13MLmw-15" target="VcqMfghgUAIxzH13MLmw-17">
          <mxGeometry relative="1" as="geometry">
            <mxPoint x="180" y="520" as="targetPoint" />
          </mxGeometry>
        </mxCell>
        <mxCell id="VcqMfghgUAIxzH13MLmw-15" value="" style="rhombus;whiteSpace=wrap;html=1;" vertex="1" parent="1">
          <mxGeometry x="140" y="390" width="80" height="80" as="geometry" />
        </mxCell>
        <mxCell id="VcqMfghgUAIxzH13MLmw-18" style="edgeStyle=orthogonalEdgeStyle;rounded=0;orthogonalLoop=1;jettySize=auto;html=1;" edge="1" parent="1" source="VcqMfghgUAIxzH13MLmw-17">
          <mxGeometry relative="1" as="geometry">
            <mxPoint x="180" y="620" as="targetPoint" />
          </mxGeometry>
        </mxCell>
        <mxCell id="VcqMfghgUAIxzH13MLmw-17" value="" style="rhombus;whiteSpace=wrap;html=1;" vertex="1" parent="1">
          <mxGeometry x="140" y="505" width="80" height="80" as="geometry" />
        </mxCell>
        <mxCell id="VcqMfghgUAIxzH13MLmw-21" style="edgeStyle=orthogonalEdgeStyle;rounded=0;orthogonalLoop=1;jettySize=auto;html=1;entryX=0.5;entryY=0;entryDx=0;entryDy=0;" edge="1" parent="1" source="VcqMfghgUAIxzH13MLmw-19" target="VcqMfghgUAIxzH13MLmw-20">
          <mxGeometry relative="1" as="geometry" />
        </mxCell>
        <mxCell id="VcqMfghgUAIxzH13MLmw-19" value="" style="rhombus;whiteSpace=wrap;html=1;" vertex="1" parent="1">
          <mxGeometry x="140" y="620" width="80" height="80" as="geometry" />
        </mxCell>
        <mxCell id="VcqMfghgUAIxzH13MLmw-22" style="edgeStyle=orthogonalEdgeStyle;rounded=0;orthogonalLoop=1;jettySize=auto;html=1;" edge="1" parent="1" source="VcqMfghgUAIxzH13MLmw-20">
          <mxGeometry relative="1" as="geometry">
            <mxPoint x="180" y="860" as="targetPoint" />
          </mxGeometry>
        </mxCell>
        <mxCell id="VcqMfghgUAIxzH13MLmw-20" value="" style="rhombus;whiteSpace=wrap;html=1;" vertex="1" parent="1">
          <mxGeometry x="140" y="740" width="80" height="80" as="geometry" />
        </mxCell>
        <mxCell id="VcqMfghgUAIxzH13MLmw-26" style="edgeStyle=orthogonalEdgeStyle;rounded=0;orthogonalLoop=1;jettySize=auto;html=1;" edge="1" parent="1" source="VcqMfghgUAIxzH13MLmw-25">
          <mxGeometry relative="1" as="geometry">
            <mxPoint x="180" y="960" as="targetPoint" />
          </mxGeometry>
        </mxCell>
        <mxCell id="VcqMfghgUAIxzH13MLmw-25" value="y=вираз&lt;sub&gt;6&lt;/sub&gt;" style="ellipse;whiteSpace=wrap;html=1;" vertex="1" parent="1">
          <mxGeometry x="125" y="860" width="110" height="50" as="geometry" />
        </mxCell>
        <mxCell id="VcqMfghgUAIxzH13MLmw-27" value="" style="ellipse;html=1;shape=endState;fillColor=strokeColor;" vertex="1" parent="1">
          <mxGeometry x="152.5" y="1070" width="55" height="50" as="geometry" />
        </mxCell>
        <mxCell id="VcqMfghgUAIxzH13MLmw-29" style="edgeStyle=orthogonalEdgeStyle;rounded=0;orthogonalLoop=1;jettySize=auto;html=1;" edge="1" parent="1" source="VcqMfghgUAIxzH13MLmw-28" target="VcqMfghgUAIxzH13MLmw-27">
          <mxGeometry relative="1" as="geometry" />
        </mxCell>
        <mxCell id="VcqMfghgUAIxzH13MLmw-28" value="y" style="rhombus;whiteSpace=wrap;html=1;" vertex="1" parent="1">
          <mxGeometry x="140" y="960" width="80" height="80" as="geometry" />
        </mxCell>
        <mxCell id="VcqMfghgUAIxzH13MLmw-30" style="edgeStyle=orthogonalEdgeStyle;rounded=0;orthogonalLoop=1;jettySize=auto;html=1;entryX=0;entryY=0.5;entryDx=0;entryDy=0;" edge="1" parent="1" target="VcqMfghgUAIxzH13MLmw-31">
          <mxGeometry relative="1" as="geometry">
            <mxPoint x="350" y="430" as="targetPoint" />
            <mxPoint x="220" y="430" as="sourcePoint" />
          </mxGeometry>
        </mxCell>
        <mxCell id="VcqMfghgUAIxzH13MLmw-36" style="edgeStyle=orthogonalEdgeStyle;rounded=0;orthogonalLoop=1;jettySize=auto;html=1;entryX=0;entryY=0.5;entryDx=0;entryDy=0;" edge="1" parent="1" source="VcqMfghgUAIxzH13MLmw-31" target="VcqMfghgUAIxzH13MLmw-35">
          <mxGeometry relative="1" as="geometry" />
        </mxCell>
        <mxCell id="VcqMfghgUAIxzH13MLmw-31" value="y=вираз&lt;sub&gt;2&lt;/sub&gt;" style="ellipse;whiteSpace=wrap;html=1;" vertex="1" parent="1">
          <mxGeometry x="354" y="390" width="120" height="80" as="geometry" />
        </mxCell>
        <mxCell id="VcqMfghgUAIxzH13MLmw-32" value="y=вираз&lt;sub&gt;3&lt;/sub&gt;" style="ellipse;whiteSpace=wrap;html=1;" vertex="1" parent="1">
          <mxGeometry x="354" y="505" width="120" height="80" as="geometry" />
        </mxCell>
        <mxCell id="VcqMfghgUAIxzH13MLmw-34" value="y=вираз&lt;sub&gt;5&lt;/sub&gt;" style="ellipse;whiteSpace=wrap;html=1;" vertex="1" parent="1">
          <mxGeometry x="354" y="740" width="120" height="80" as="geometry" />
        </mxCell>
        <mxCell id="VcqMfghgUAIxzH13MLmw-42" style="edgeStyle=orthogonalEdgeStyle;rounded=0;orthogonalLoop=1;jettySize=auto;html=1;" edge="1" parent="1" source="VcqMfghgUAIxzH13MLmw-35" target="VcqMfghgUAIxzH13MLmw-39">
          <mxGeometry relative="1" as="geometry" />
        </mxCell>
        <mxCell id="VcqMfghgUAIxzH13MLmw-35" value="" style="rhombus;whiteSpace=wrap;html=1;" vertex="1" parent="1">
          <mxGeometry x="560" y="390" width="80" height="80" as="geometry" />
        </mxCell>
        <mxCell id="VcqMfghgUAIxzH13MLmw-37" value="" style="endArrow=classic;html=1;rounded=0;entryX=0.5;entryY=0;entryDx=0;entryDy=0;" edge="1" parent="1" target="VcqMfghgUAIxzH13MLmw-35">
          <mxGeometry width="50" height="50" relative="1" as="geometry">
            <mxPoint x="600" y="320" as="sourcePoint" />
            <mxPoint x="440" y="470" as="targetPoint" />
          </mxGeometry>
        </mxCell>
        <mxCell id="VcqMfghgUAIxzH13MLmw-43" style="edgeStyle=orthogonalEdgeStyle;rounded=0;orthogonalLoop=1;jettySize=auto;html=1;entryX=0.5;entryY=0;entryDx=0;entryDy=0;" edge="1" parent="1" source="VcqMfghgUAIxzH13MLmw-39" target="VcqMfghgUAIxzH13MLmw-40">
          <mxGeometry relative="1" as="geometry" />
        </mxCell>
        <mxCell id="VcqMfghgUAIxzH13MLmw-39" value="" style="rhombus;whiteSpace=wrap;html=1;" vertex="1" parent="1">
          <mxGeometry x="560" y="505" width="80" height="80" as="geometry" />
        </mxCell>
        <mxCell id="VcqMfghgUAIxzH13MLmw-44" style="edgeStyle=orthogonalEdgeStyle;rounded=0;orthogonalLoop=1;jettySize=auto;html=1;entryX=0.5;entryY=0;entryDx=0;entryDy=0;" edge="1" parent="1" source="VcqMfghgUAIxzH13MLmw-40" target="VcqMfghgUAIxzH13MLmw-41">
          <mxGeometry relative="1" as="geometry" />
        </mxCell>
        <mxCell id="VcqMfghgUAIxzH13MLmw-40" value="" style="rhombus;whiteSpace=wrap;html=1;" vertex="1" parent="1">
          <mxGeometry x="560" y="620" width="80" height="80" as="geometry" />
        </mxCell>
        <mxCell id="VcqMfghgUAIxzH13MLmw-41" value="" style="rhombus;whiteSpace=wrap;html=1;" vertex="1" parent="1">
          <mxGeometry x="560" y="740" width="80" height="80" as="geometry" />
        </mxCell>
        <mxCell id="VcqMfghgUAIxzH13MLmw-45" value="" style="endArrow=none;html=1;rounded=0;entryX=0.5;entryY=1;entryDx=0;entryDy=0;" edge="1" parent="1" target="VcqMfghgUAIxzH13MLmw-41">
          <mxGeometry width="50" height="50" relative="1" as="geometry">
            <mxPoint x="600" y="1000" as="sourcePoint" />
            <mxPoint x="440" y="950" as="targetPoint" />
          </mxGeometry>
        </mxCell>
        <mxCell id="VcqMfghgUAIxzH13MLmw-46" value="" style="endArrow=classic;html=1;rounded=0;entryX=1;entryY=0.5;entryDx=0;entryDy=0;" edge="1" parent="1" target="VcqMfghgUAIxzH13MLmw-28">
          <mxGeometry width="50" height="50" relative="1" as="geometry">
            <mxPoint x="600" y="1000" as="sourcePoint" />
            <mxPoint x="440" y="950" as="targetPoint" />
          </mxGeometry>
        </mxCell>
        <mxCell id="VcqMfghgUAIxzH13MLmw-47" style="edgeStyle=orthogonalEdgeStyle;rounded=0;orthogonalLoop=1;jettySize=auto;html=1;entryX=0;entryY=0.5;entryDx=0;entryDy=0;" edge="1" parent="1" target="VcqMfghgUAIxzH13MLmw-32">
          <mxGeometry relative="1" as="geometry">
            <mxPoint x="360" y="544.5" as="targetPoint" />
            <mxPoint x="220" y="544.5" as="sourcePoint" />
          </mxGeometry>
        </mxCell>
        <mxCell id="VcqMfghgUAIxzH13MLmw-48" style="edgeStyle=orthogonalEdgeStyle;rounded=0;orthogonalLoop=1;jettySize=auto;html=1;entryX=0;entryY=0.5;entryDx=0;entryDy=0;" edge="1" parent="1">
          <mxGeometry relative="1" as="geometry">
            <mxPoint x="354" y="660" as="targetPoint" />
            <mxPoint x="220" y="659.5" as="sourcePoint" />
          </mxGeometry>
        </mxCell>
        <mxCell id="VcqMfghgUAIxzH13MLmw-33" value="y=вираз&lt;sub&gt;4&lt;/sub&gt;" style="ellipse;whiteSpace=wrap;html=1;" vertex="1" parent="1">
          <mxGeometry x="354" y="620" width="120" height="80" as="geometry" />
        </mxCell>
        <mxCell id="VcqMfghgUAIxzH13MLmw-51" style="edgeStyle=orthogonalEdgeStyle;rounded=0;orthogonalLoop=1;jettySize=auto;html=1;entryX=0;entryY=0.5;entryDx=0;entryDy=0;" edge="1" parent="1">
          <mxGeometry relative="1" as="geometry">
            <mxPoint x="354" y="780" as="targetPoint" />
            <mxPoint x="220" y="779.5" as="sourcePoint" />
          </mxGeometry>
        </mxCell>
        <mxCell id="VcqMfghgUAIxzH13MLmw-52" style="edgeStyle=orthogonalEdgeStyle;rounded=0;orthogonalLoop=1;jettySize=auto;html=1;entryX=0;entryY=0.5;entryDx=0;entryDy=0;" edge="1" parent="1">
          <mxGeometry relative="1" as="geometry">
            <mxPoint x="474" y="544.5" as="sourcePoint" />
            <mxPoint x="560" y="544.5" as="targetPoint" />
          </mxGeometry>
        </mxCell>
        <mxCell id="VcqMfghgUAIxzH13MLmw-54" style="edgeStyle=orthogonalEdgeStyle;rounded=0;orthogonalLoop=1;jettySize=auto;html=1;entryX=0;entryY=0.5;entryDx=0;entryDy=0;" edge="1" parent="1">
          <mxGeometry relative="1" as="geometry">
            <mxPoint x="474" y="659.5" as="sourcePoint" />
            <mxPoint x="560" y="659.5" as="targetPoint" />
          </mxGeometry>
        </mxCell>
        <mxCell id="VcqMfghgUAIxzH13MLmw-55" style="edgeStyle=orthogonalEdgeStyle;rounded=0;orthogonalLoop=1;jettySize=auto;html=1;entryX=0;entryY=0.5;entryDx=0;entryDy=0;" edge="1" parent="1">
          <mxGeometry relative="1" as="geometry">
            <mxPoint x="474" y="779.5" as="sourcePoint" />
            <mxPoint x="560" y="779.5" as="targetPoint" />
          </mxGeometry>
        </mxCell>
        <mxCell id="VcqMfghgUAIxzH13MLmw-56" value="x &amp;lt;= -1" style="text;whiteSpace=wrap;html=1;" vertex="1" parent="1">
          <mxGeometry x="260" y="280" width="50" height="30" as="geometry" />
        </mxCell>
        <mxCell id="VcqMfghgUAIxzH13MLmw-57" value="-1 &amp;lt; x &amp;lt;= 0" style="text;whiteSpace=wrap;html=1;" vertex="1" parent="1">
          <mxGeometry x="250" y="390" width="70" height="30" as="geometry" />
        </mxCell>
        <mxCell id="VcqMfghgUAIxzH13MLmw-58" value="0 &amp;lt; x &amp;lt; 1" style="text;whiteSpace=wrap;html=1;" vertex="1" parent="1">
          <mxGeometry x="257.5" y="510" width="55" height="25" as="geometry" />
        </mxCell>
        <mxCell id="VcqMfghgUAIxzH13MLmw-59" value="1 &amp;lt;= x &amp;lt;= 1+2R&amp;nbsp;" style="text;whiteSpace=wrap;html=1;" vertex="1" parent="1">
          <mxGeometry x="237" y="620" width="96" height="30" as="geometry" />
        </mxCell>
        <mxCell id="VcqMfghgUAIxzH13MLmw-60" value="1+2R &amp;lt; x &amp;lt;= 7" style="text;whiteSpace=wrap;html=1;" vertex="1" parent="1">
          <mxGeometry x="242.5" y="740" width="85" height="30" as="geometry" />
        </mxCell>
      </root>
    </mxGraphModel>
  </diagram>
</mxfile>
